<svg width="16" height="16" viewBox="0 0 16 16" fill="none" xmlns="http://www.w3.org/2000/svg">
<g id="Group 1000005558">
<path id="Vector" d="M2.75862 13.2394C4.51724 14.9143 6.61085 14.2444 7.44829 13.566C7.88157 13.2151 8.07637 12.9882 8.24381 12.8207C8.83003 12.2764 8.79237 11.7321 8.41131 11.2966C8.25886 11.1223 7.28079 10.1828 6.34286 9.21974C5.85714 8.73396 5.52217 8.3907 5.23576 8.11435C4.85221 7.73203 4.51724 7.29364 4.01478 7.30617C3.55419 7.30617 3.21921 7.71236 2.80049 8.13108C2.31881 8.61273 1.96306 9.21974 1.83744 9.76411C1.46059 11.3552 2.0468 12.4857 2.75862 13.2394ZM2.75862 13.2394L1 14.998" stroke="white" stroke-width="1.04995" stroke-linecap="round"/>
<path id="Vector_2" d="M13.2404 2.75945C11.4813 1.08377 9.39494 1.76635 8.55729 2.445C8.12387 2.79613 7.92907 3.0231 7.7615 3.19067C7.17514 3.73527 7.21287 4.27986 7.594 4.71554C7.64881 4.77822 7.81043 4.93987 8.03848 5.166M13.2404 2.75945C13.9525 3.51351 14.5466 4.65689 14.1696 6.24878C14.044 6.79335 13.6882 7.40064 13.2063 7.88257C12.7875 8.3015 12.4525 8.70783 11.9918 8.70783C11.4891 8.72043 11.2283 8.35694 10.8446 7.97447M13.2404 2.75945L14.9996 1M8.03848 5.166C8.44481 5.56883 9.06218 6.17627 9.66303 6.79335C10.1489 7.27941 10.5581 7.69799 10.8446 7.97447M8.03848 5.166L6.95801 6.25325M10.8446 7.97447L9.75158 9.04157" stroke="white" stroke-width="1.04995" stroke-linecap="round"/>
</g>
</svg>
