<svg width="19" height="18" viewBox="0 0 19 18" fill="none" xmlns="http://www.w3.org/2000/svg">
<g id="Group 1000005553">
<path id="Vector" d="M18.3014 13.412V4.36607C18.3014 3.24148 17.8546 2.16295 17.0594 1.36774C16.2642 0.572536 15.1857 0.125793 14.0611 0.125793C12.9365 0.125793 11.858 0.572536 11.0627 1.36774C10.2675 2.16295 9.8208 3.24148 9.8208 4.36607V5.21412H11.5169V4.36607C11.5169 3.69131 11.785 3.0442 12.2621 2.56707C12.7392 2.08995 13.3863 1.8219 14.0611 1.8219C14.7358 1.8219 15.3829 2.08995 15.8601 2.56707C16.3372 3.0442 16.6052 3.69131 16.6052 4.36607V13.412C16.6052 14.0867 16.3372 14.7339 15.8601 15.211C15.3829 15.6881 14.7358 15.9562 14.0611 15.9562C13.3863 15.9562 12.7392 15.6881 12.2621 15.211C11.785 14.7339 11.5169 14.0867 11.5169 13.412V12.5639H9.8208V13.412C9.8208 14.5366 10.2675 15.6151 11.0627 16.4103C11.858 17.2055 12.9365 17.6523 14.0611 17.6523C15.1857 17.6523 16.2642 17.2055 17.0594 16.4103C17.8546 15.6151 18.3014 14.5366 18.3014 13.412Z" fill="#0771EF"/>
<path id="Vector_2" d="M5.01492 13.4798L6.21351 12.2812L3.66934 9.73701H11.5167V8.0409H3.66934L6.21351 5.49673L5.01492 4.29815L1.02341 8.28966C0.864594 8.44867 0.775391 8.66422 0.775391 8.88896C0.775391 9.11369 0.864594 9.32924 1.02341 9.48825L5.01492 13.4798Z" fill="#0771EF"/>
</g>
</svg>
